<svg width="364" height="464" viewBox="0 0 364 464" fill="none" xmlns="http://www.w3.org/2000/svg">
<path d="M84.9291 445.06C78.353 438.976 70.1921 425.342 73.8443 416.68C80.381 401.155 112.287 379.114 124.592 372.214C170.033 346.717 188.748 356.148 249.261 320.178C265.297 310.649 328.852 307.725 347.32 314.389C365.532 320.955 364.243 335.731 359.262 360.391C353.05 391.124 311.329 379.548 285.015 380.995C187.665 386.34 158.949 401.264 84.9389 445.07L84.9291 445.06Z" fill="white"/>
<path d="M1.45886 290.803C-0.332812 281.993 1.0454 271.056 2.15781 267.315C4.70749 258.702 13.3804 241.484 28.8754 241.898C73.933 243.109 100.237 264.086 129.76 270.761C166.243 279.01 188.521 286.108 194.743 301.583C198.681 314.695 171.412 322.56 166.647 324.51C108.142 348.539 94.1237 390.209 63.5669 381.655C35.1068 373.681 6.63699 320.729 2.97489 300.136L1.4687 290.794L1.45886 290.803Z" fill="white"/>
<path d="M224.699 301.77C218.359 301.829 216.184 294.298 216.479 286.354C217.503 258.318 259.223 228.52 290.489 208.979C317.462 192.116 357.135 201.055 362.461 239.791C373.762 322.009 285.399 273.222 239.948 292.132C235.292 294.072 228.44 301.77 224.699 301.77Z" fill="white"/>
<path d="M188.334 154.029C147.421 163.608 121.058 117.065 89.802 115.677C70.7926 114.83 86.829 83.6144 101.507 80.5923C125.862 75.5718 132.733 110.243 186.73 104.454C216.883 101.226 272.238 66.6924 279.04 74.2822C296.711 93.9803 233.254 146.666 188.334 154.039V154.029Z" fill="white"/>
<path d="M133.787 451.346C129.425 446.483 125.498 437.446 139.486 432.436C172.032 420.79 197.863 422.434 231.876 420.534C261.369 418.89 284.041 407.894 313.347 412.059C318.181 412.748 340.597 415.297 345.479 422.031C327.464 468.593 206.595 472.216 133.787 451.346Z" fill="white"/>
<path d="M224.04 217.888C218.605 217.888 219.836 210.524 219.866 206.843C220.092 173.097 253.366 140.228 278.115 127.243C298.729 116.425 322.473 112.005 328.459 145.859C334.69 181.081 229.474 217.878 224.04 217.878V217.888Z" fill="white"/>
<path d="M167.631 18.0919C184.239 16.5169 181.679 -5.05155 209.155 1.10102C228.45 7.65719 259.528 31.3126 230.744 57.931C207.944 79.0171 160.061 103.46 142.45 56.858C135.401 38.2133 148.661 19.8934 167.631 18.0919Z" fill="white"/>
</svg>
