<svg width="286" height="22" viewBox="0 0 286 22" fill="none" xmlns="http://www.w3.org/2000/svg">
<path d="M6.032 14.024C6.944 14.024 7.64 13.592 8.24 12.8C8.528 12.416 8.816 12.368 9.176 12.608L10.832 13.784C11.168 14.024 11.264 14.336 11.024 14.696C9.896 16.448 8.264 17.288 6.032 17.288C2.24 17.288 0.128 15.224 0.128 11.528V6.536C0.128 2.84 2.24 0.775999 6.032 0.775999C8.264 0.775999 9.896 1.616 11.024 3.368C11.264 3.728 11.168 4.04 10.832 4.28L9.176 5.456C8.816 5.696 8.528 5.648 8.24 5.264C7.64 4.448 6.944 4.04 6.032 4.04C4.616 4.04 3.872 5 3.872 6.824V11.24C3.872 13.064 4.616 14.024 6.032 14.024ZM12.6436 11.528V6.536C12.6436 2.84 14.8036 0.775999 18.6676 0.775999C22.5316 0.775999 24.6916 2.84 24.6916 6.536V11.528C24.6916 15.224 22.5316 17.288 18.6676 17.288C14.8036 17.288 12.6436 15.224 12.6436 11.528ZM16.3876 6.824V11.24C16.3876 13.112 17.1316 14.024 18.6676 14.024C20.2036 14.024 20.9476 13.112 20.9476 11.24V6.824C20.9476 4.952 20.2036 4.04 18.6676 4.04C17.1316 4.04 16.3876 4.952 16.3876 6.824ZM38.4845 17H36.0365C35.6525 17 35.3885 16.832 35.2445 16.496L31.0925 7.496H31.0445V16.328C31.0445 16.76 30.8045 17 30.3725 17H28.0685C27.6365 17 27.3965 16.76 27.3965 16.328V1.736C27.3965 1.304 27.6365 1.064 28.0685 1.064H30.8045C31.1885 1.064 31.4525 1.232 31.5965 1.568L35.4605 9.944H35.5085V1.736C35.5085 1.304 35.7485 1.064 36.1805 1.064H38.4845C38.9165 1.064 39.1565 1.304 39.1565 1.736V16.328C39.1565 16.76 38.9165 17 38.4845 17ZM54.0862 1.736V16.328C54.0862 16.76 53.8462 17 53.4142 17H51.0142C50.5822 17 50.3422 16.76 50.3422 16.328V10.568H46.0702V16.328C46.0702 16.76 45.8302 17 45.3982 17H42.9982C42.5662 17 42.3262 16.76 42.3262 16.328V1.736C42.3262 1.304 42.5662 1.064 42.9982 1.064H45.3982C45.8302 1.064 46.0702 1.304 46.0702 1.736V7.304H50.3422V1.736C50.3422 1.304 50.5822 1.064 51.0142 1.064H53.4142C53.8462 1.064 54.0862 1.304 54.0862 1.736ZM60.9999 7.328H65.9919C66.4239 7.328 66.6639 7.568 66.6639 8V9.872C66.6639 10.304 66.4239 10.544 65.9919 10.544H60.9999V13.736H67.0479C67.4799 13.736 67.7199 13.976 67.7199 14.408V16.328C67.7199 16.76 67.4799 17 67.0479 17H57.9279C57.4959 17 57.2559 16.76 57.2559 16.328V1.736C57.2559 1.304 57.4959 1.064 57.9279 1.064H67.0479C67.4799 1.064 67.7199 1.304 67.7199 1.736V3.656C67.7199 4.088 67.4799 4.328 67.0479 4.328H60.9999V7.328ZM78.8088 12.608L80.4648 13.784C80.8008 14.024 80.8968 14.336 80.6568 14.696C79.6248 16.304 78.1608 17.144 76.1928 17.264L76.0968 17.792C77.2248 17.912 77.8248 18.536 77.8248 19.352C77.8248 20.48 76.9608 21.128 75.2808 21.128C74.6088 21.128 74.0088 21.032 73.4808 20.816C73.1208 20.672 73.0488 20.384 73.1928 20.024L73.4328 19.448C73.5768 19.088 73.8648 18.992 74.2008 19.16C74.4888 19.304 74.8008 19.424 75.1608 19.424C75.6408 19.424 75.7848 19.232 75.7848 18.968C75.7848 18.704 75.4968 18.536 74.9688 18.488C74.5608 18.44 74.4408 18.296 74.5128 17.888L74.6328 17.24C71.4888 16.88 69.7608 14.888 69.7608 11.528V6.536C69.7608 2.84 71.8728 0.775999 75.6648 0.775999C77.8968 0.775999 79.5288 1.616 80.6568 3.368C80.8968 3.728 80.8008 4.04 80.4648 4.28L78.8088 5.456C78.4488 5.696 78.1608 5.648 77.8728 5.264C77.2728 4.448 76.5768 4.04 75.6648 4.04C74.2488 4.04 73.5048 5 73.5048 6.824V11.24C73.5048 13.064 74.2488 14.024 75.6648 14.024C76.5768 14.024 77.2728 13.592 77.8728 12.8C78.1608 12.416 78.4488 12.368 78.8088 12.608ZM90.5804 1.616L95.0444 16.232C95.1884 16.712 94.9724 17 94.4924 17H91.9484C91.5404 17 91.3004 16.808 91.2044 16.424L90.6764 14.48H85.9724L85.4444 16.424C85.3484 16.808 85.1084 17 84.7004 17H82.2524C81.7724 17 81.5564 16.712 81.7004 16.232L86.1644 1.616C86.2844 1.256 86.5244 1.064 86.9084 1.064H89.8364C90.2204 1.064 90.4604 1.256 90.5804 1.616ZM88.3484 5.432H88.3004L86.8124 11.36H89.8604L88.3484 5.432ZM113.414 17H110.966C110.582 17 110.318 16.832 110.174 16.496L106.022 7.496H105.974V16.328C105.974 16.76 105.734 17 105.302 17H102.998C102.566 17 102.326 16.76 102.326 16.328V1.736C102.326 1.304 102.566 1.064 102.998 1.064H105.734C106.118 1.064 106.382 1.232 106.526 1.568L110.39 9.944H110.438V1.736C110.438 1.304 110.678 1.064 111.11 1.064H113.414C113.846 1.064 114.086 1.304 114.086 1.736V16.328C114.086 16.76 113.846 17 113.414 17ZM116.8 11.528V6.536C116.8 2.84 118.96 0.775999 122.824 0.775999C126.688 0.775999 128.848 2.84 128.848 6.536V11.528C128.848 15.224 126.688 17.288 122.824 17.288C118.96 17.288 116.8 15.224 116.8 11.528ZM120.544 6.824V11.24C120.544 13.112 121.288 14.024 122.824 14.024C124.36 14.024 125.104 13.112 125.104 11.24V6.824C125.104 4.952 124.36 4.04 122.824 4.04C121.288 4.04 120.544 4.952 120.544 6.824ZM136.161 0.775999C138.369 0.775999 140.001 1.328 141.201 2.48C141.513 2.792 141.489 3.128 141.201 3.44L139.785 4.88C139.473 5.192 139.161 5.168 138.825 4.904C138.153 4.328 137.361 4.04 136.377 4.04C135.201 4.04 134.553 4.616 134.553 5.648C134.553 6.536 135.225 6.968 137.121 7.28C140.649 7.856 142.017 9.344 142.017 12.296C142.017 15.32 139.905 17.288 136.665 17.288C134.145 17.288 132.273 16.616 130.881 15.2C130.593 14.888 130.617 14.552 130.905 14.264L132.321 12.8C132.633 12.488 132.945 12.488 133.281 12.8C134.217 13.616 135.273 14.024 136.449 14.024C137.625 14.024 138.273 13.448 138.273 12.416C138.273 11.528 137.625 11.12 135.705 10.784C132.177 10.184 130.809 8.72 130.809 5.768C130.809 2.744 132.921 0.775999 136.161 0.775999ZM148.7 0.775999C150.908 0.775999 152.54 1.328 153.74 2.48C154.052 2.792 154.028 3.128 153.74 3.44L152.324 4.88C152.012 5.192 151.7 5.168 151.364 4.904C150.692 4.328 149.9 4.04 148.916 4.04C147.74 4.04 147.092 4.616 147.092 5.648C147.092 6.536 147.764 6.968 149.66 7.28C153.188 7.856 154.556 9.344 154.556 12.296C154.556 15.32 152.444 17.288 149.204 17.288C146.684 17.288 144.812 16.616 143.42 15.2C143.132 14.888 143.156 14.552 143.444 14.264L144.86 12.8C145.172 12.488 145.484 12.488 145.82 12.8C146.756 13.616 147.812 14.024 148.988 14.024C150.164 14.024 150.812 13.448 150.812 12.416C150.812 11.528 150.164 11.12 148.244 10.784C144.716 10.184 143.348 8.72 143.348 5.768C143.348 2.744 145.46 0.775999 148.7 0.775999ZM156.175 11.528V6.536C156.175 2.84 158.335 0.775999 162.199 0.775999C166.063 0.775999 168.223 2.84 168.223 6.536V11.528C168.223 15.224 166.063 17.288 162.199 17.288C158.335 17.288 156.175 15.224 156.175 11.528ZM159.919 6.824V11.24C159.919 13.112 160.663 14.024 162.199 14.024C163.735 14.024 164.479 13.112 164.479 11.24V6.824C164.479 4.952 163.735 4.04 162.199 4.04C160.663 4.04 159.919 4.952 159.919 6.824ZM175.536 0.775999C177.744 0.775999 179.376 1.328 180.576 2.48C180.888 2.792 180.864 3.128 180.576 3.44L179.16 4.88C178.848 5.192 178.536 5.168 178.2 4.904C177.528 4.328 176.736 4.04 175.752 4.04C174.576 4.04 173.928 4.616 173.928 5.648C173.928 6.536 174.6 6.968 176.496 7.28C180.024 7.856 181.392 9.344 181.392 12.296C181.392 15.32 179.28 17.288 176.04 17.288C173.52 17.288 171.648 16.616 170.256 15.2C169.968 14.888 169.992 14.552 170.28 14.264L171.696 12.8C172.008 12.488 172.32 12.488 172.656 12.8C173.592 13.616 174.648 14.024 175.824 14.024C177 14.024 177.648 13.448 177.648 12.416C177.648 11.528 177 11.12 175.08 10.784C171.552 10.184 170.184 8.72 170.184 5.768C170.184 2.744 172.296 0.775999 175.536 0.775999ZM193.231 0.775999C195.439 0.775999 197.071 1.328 198.271 2.48C198.583 2.792 198.559 3.128 198.271 3.44L196.855 4.88C196.543 5.192 196.231 5.168 195.895 4.904C195.223 4.328 194.431 4.04 193.447 4.04C192.271 4.04 191.623 4.616 191.623 5.648C191.623 6.536 192.295 6.968 194.191 7.28C197.719 7.856 199.087 9.344 199.087 12.296C199.087 15.32 196.975 17.288 193.735 17.288C191.215 17.288 189.343 16.616 187.951 15.2C187.663 14.888 187.687 14.552 187.975 14.264L189.391 12.8C189.703 12.488 190.015 12.488 190.351 12.8C191.287 13.616 192.343 14.024 193.519 14.024C194.695 14.024 195.343 13.448 195.343 12.416C195.343 11.528 194.695 11.12 192.775 10.784C189.247 10.184 187.879 8.72 187.879 5.768C187.879 2.744 189.991 0.775999 193.231 0.775999ZM204.906 7.328H209.898C210.33 7.328 210.57 7.568 210.57 8V9.872C210.57 10.304 210.33 10.544 209.898 10.544H204.906V13.736H210.954C211.386 13.736 211.626 13.976 211.626 14.408V16.328C211.626 16.76 211.386 17 210.954 17H201.834C201.402 17 201.162 16.76 201.162 16.328V1.736C201.162 1.304 201.402 1.064 201.834 1.064H210.954C211.386 1.064 211.626 1.304 211.626 1.736V3.656C211.626 4.088 211.386 4.328 210.954 4.328H204.906V7.328ZM217.867 11.288V16.328C217.867 16.76 217.627 17 217.195 17H214.795C214.363 17 214.123 16.76 214.123 16.328V1.736C214.123 1.304 214.363 1.064 214.795 1.064H219.283C223.291 1.064 225.235 2.744 225.235 6.152C225.235 8.576 224.275 10.112 222.331 10.832L225.283 16.208C225.523 16.664 225.331 17 224.803 17H221.971C221.587 17 221.347 16.856 221.179 16.496L218.707 11.288H217.867ZM217.867 8.12H219.283C220.771 8.12 221.443 7.52 221.443 6.224C221.443 4.928 220.771 4.328 219.283 4.328H217.867V8.12ZM236.457 1.064H238.857C239.337 1.064 239.553 1.352 239.433 1.832L235.113 16.448C234.993 16.808 234.753 17 234.369 17H231.537C231.153 17 230.913 16.808 230.793 16.448L226.473 1.832C226.353 1.352 226.569 1.064 227.049 1.064H229.593C230.001 1.064 230.241 1.256 230.337 1.64L233.001 11.72H233.049L235.713 1.64C235.809 1.256 236.049 1.064 236.457 1.064ZM245.242 1.736V16.328C245.242 16.76 245.002 17 244.57 17H242.17C241.738 17 241.498 16.76 241.498 16.328V1.736C241.498 1.304 241.738 1.064 242.17 1.064H244.57C245.002 1.064 245.242 1.304 245.242 1.736ZM257.004 12.608L258.66 13.784C258.996 14.024 259.092 14.336 258.852 14.696C257.82 16.304 256.356 17.144 254.388 17.264L254.292 17.792C255.42 17.912 256.02 18.536 256.02 19.352C256.02 20.48 255.156 21.128 253.476 21.128C252.804 21.128 252.204 21.032 251.676 20.816C251.316 20.672 251.244 20.384 251.388 20.024L251.628 19.448C251.772 19.088 252.06 18.992 252.396 19.16C252.684 19.304 252.996 19.424 253.356 19.424C253.836 19.424 253.98 19.232 253.98 18.968C253.98 18.704 253.692 18.536 253.164 18.488C252.756 18.44 252.636 18.296 252.708 17.888L252.828 17.24C249.684 16.88 247.956 14.888 247.956 11.528V6.536C247.956 2.84 250.068 0.775999 253.86 0.775999C256.092 0.775999 257.724 1.616 258.852 3.368C259.092 3.728 258.996 4.04 258.66 4.28L257.004 5.456C256.644 5.696 256.356 5.648 256.068 5.264C255.468 4.448 254.772 4.04 253.86 4.04C252.444 4.04 251.7 5 251.7 6.824V11.24C251.7 13.064 252.444 14.024 253.86 14.024C254.772 14.024 255.468 13.592 256.068 12.8C256.356 12.416 256.644 12.368 257.004 12.608ZM260.472 11.528V6.536C260.472 2.84 262.632 0.775999 266.496 0.775999C270.36 0.775999 272.52 2.84 272.52 6.536V11.528C272.52 15.224 270.36 17.288 266.496 17.288C262.632 17.288 260.472 15.224 260.472 11.528ZM264.216 6.824V11.24C264.216 13.112 264.96 14.024 266.496 14.024C268.032 14.024 268.776 13.112 268.776 11.24V6.824C268.776 4.952 268.032 4.04 266.496 4.04C264.96 4.04 264.216 4.952 264.216 6.824ZM279.833 0.775999C282.041 0.775999 283.673 1.328 284.873 2.48C285.185 2.792 285.161 3.128 284.873 3.44L283.457 4.88C283.145 5.192 282.833 5.168 282.497 4.904C281.825 4.328 281.033 4.04 280.049 4.04C278.873 4.04 278.225 4.616 278.225 5.648C278.225 6.536 278.897 6.968 280.793 7.28C284.321 7.856 285.689 9.344 285.689 12.296C285.689 15.32 283.577 17.288 280.337 17.288C277.817 17.288 275.945 16.616 274.553 15.2C274.265 14.888 274.289 14.552 274.577 14.264L275.993 12.8C276.305 12.488 276.617 12.488 276.953 12.8C277.889 13.616 278.945 14.024 280.121 14.024C281.297 14.024 281.945 13.448 281.945 12.416C281.945 11.528 281.297 11.12 279.377 10.784C275.849 10.184 274.481 8.72 274.481 5.768C274.481 2.744 276.593 0.775999 279.833 0.775999Z" fill="white"/>
</svg>
